Coordinates
version=1
nRows=16
nColumns=33
inDegrees=yes

Units are S.I. units (second, meters, Newtons, ...)
Angles are in degrees.

endheader
time	ground_thorax_rot_x	ground_thorax_rot_y	ground_thorax_rot_z	ground_thorax_tx	ground_thorax_ty	ground_thorax_tz	clav_prot_r	clav_elev_r	scapula_abduction_r	scapula_elevation_r	scapula_upward_rot_r	scapula_winging_r	shoulder_elv_r	plane_of_elev_r	axial_rot_r	elbow_flexion_r	pro_sup_r	wrist_flex_r	wrist_dev_r	clav_prot_l	clav_elev_l	scapula_abduction_l	scapula_elevation_l	scapula_upward_rot_l	scapula_winging_l	shoulder_elv_l	plane_of_elev_l	axial_rot_l	elbow_flexion_l	pro_sup_l	wrist_flex_l	wrist_dev_l
      2.27000000	     24.67739784	     35.49605412	      2.82748944	      0.00953745	      1.00713874	     -0.03551098	    -19.59263188	     35.12217465	    -24.04589612	     25.75663628	     45.00000000	     -9.72077045	    -10.14722914	    -90.00000000	     19.38090413	     69.78766024	      9.63847277	     42.21785885	    -24.99976196	     17.80892056	     -8.83872606	    -45.00000000	      3.31715329	      9.47807038	     19.56773759	     28.13665136	    -60.68380918	    -43.15738820	     68.61318602	     26.94454654	     -0.25367009	    -24.99999983
      2.28000000	     24.85442549	     35.66158027	      2.47665431	      0.00968561	      1.00694899	     -0.03562040	    -19.80849412	     35.00426163	    -24.30823969	     25.61741982	     45.00000000	     -9.84908448	     -9.64188493	    -90.00000000	     18.87725468	     69.52508521	     11.65796561	     41.87016158	    -24.01294432	     17.83778782	     -8.89380124	    -45.00000000	      3.33358773	      9.38114345	     19.55152194	     28.10510331	    -60.27897426	    -43.51652003	     68.24758038	     25.97151376	     -2.46546887	    -24.99999983
      2.29000000	     24.87098427	     35.67595473	      2.50859523	      0.00965670	      1.00648842	     -0.03552537	    -19.82227795	     34.98165586	    -24.29828393	     25.59528245	     45.00000000	     -9.86609936	     -9.63964905	    -90.00000000	     18.87502467	     69.52871330	     11.66143371	     41.86814670	    -24.01539125	     17.84006541	     -8.90300732	    -45.00000000	      3.33925155	      9.37385885	     19.54965993	     28.08510850	    -60.27262240	    -43.52008850	     68.25645057	     25.96894540	     -2.46606551	    -24.99999983
      2.30000000	     24.79214850	     35.77418591	      2.48917458	      0.00975511	      1.00689799	     -0.03553922	    -20.00316816	     34.76079865	    -24.30205968	     25.36964523	     45.00000000	    -10.02095715	     -9.60789102	    -90.00000000	     18.84355465	     69.25235751	     11.83090829	     41.83252472	    -24.17528113	     17.90221684	     -9.09908414	    -45.00000000	      3.44149256	      9.18060802	     19.46778934	     28.00694492	    -60.18191800	    -43.01391514	     68.14161442	     25.78998951	     -2.57783976	    -24.99999983
      2.31000000	     24.79561149	     35.77951377	      2.49856358	      0.00992756	      1.00635806	     -0.03558169	    -20.00441247	     34.75679972	    -24.29639222	     25.36447714	     45.00000000	    -10.02275830	     -9.60524570	    -90.00000000	     18.84090983	     69.25448332	     11.83123169	     41.83312201	    -24.17584764	     17.90173031	     -9.10168499	    -45.00000000	      3.44375562	      9.18152149	     19.46973249	     28.00598390	    -60.17907354	    -43.01274045	     68.14303415	     25.78938462	     -2.57828223	    -24.99999983
      2.32000000	     24.76272579	     35.84813954	      2.58212023	      0.00954841	      1.00624923	     -0.03575637	    -20.01676320	     34.70569659	    -24.23421835	     25.31735338	     45.00000000	    -10.04837282	     -9.54397976	    -90.00000000	     18.77966005	     69.29090083	     11.84110081	     41.85530705	    -24.19693272	     17.90287132	     -9.13165333	    -45.00000000	      3.46759527	      9.18189822	     19.45611437	     27.96455010	    -60.12666796	    -42.97221345	     68.20028460	     25.76831730	     -2.59403564	    -24.99999983
      2.33000000	     24.87709043	     35.58935003	      2.22857790	      0.00965683	      1.00646496	     -0.03573544	    -20.11269865	     34.37492136	    -23.86829230	     25.00678421	     45.00000000	    -10.21482799	     -9.33619966	    -90.00000000	     18.57256028	     69.08487242	     12.57967377	     42.49126408	    -24.44545467	     18.11301117	     -9.55414637	    -45.00000000	      3.60821620	      8.47834845	     19.31161290	     27.68432121	    -59.84824197	    -41.31478157	     68.32732372	     25.13417346	     -2.87218871	    -24.99999983
      2.34000000	     24.85531604	     35.65931390	      2.29046232	      0.00957118	      1.00618450	     -0.03588081	    -20.10770958	     34.36864876	    -23.84671707	     25.00181763	     45.00000000	    -10.21595534	     -9.30224047	    -90.00000000	     18.53861614	     69.11349266	     12.58612954	     42.50471617	    -24.46007343	     18.10733949	     -9.56578360	    -45.00000000	      3.62382603	      8.50119997	     19.30390785	     27.67457948	    -59.80529992	    -41.29077560	     68.36118837	     25.12167588	     -2.87683784	    -24.99999983
      2.35000000	     24.82979705	     35.72816083	      2.35433726	      0.00948792	      1.00594862	     -0.03601087	    -20.10661434	     34.35744793	    -23.82520246	     24.99196865	     45.00000000	    -10.22057857	     -9.26081412	    -90.00000000	     18.49720460	     69.14265427	     12.59417761	     42.52256488	    -24.47381287	     18.10145262	     -9.57815858	    -45.00000000	      3.64060098	      8.52623375	     19.29542017	     27.66491825	    -59.75551293	    -41.25455138	     68.41490250	     25.10376240	     -2.88516904	    -24.99999983
      2.36000000	     25.12554056	     35.68696493	      2.21350535	      0.00950950	      1.00569471	     -0.03597565	    -20.06733840	     34.41601285	    -23.84052167	     25.05008826	     45.00000000	    -10.18041171	     -8.95290622	    -90.00000000	     18.19029636	     69.18343954	     13.49642424	     43.23171948	    -24.56552650	     18.31185155	    -10.07502857	    -45.00000000	      3.84120832	      7.82971432	     19.10817528	     27.44610870	    -59.48184552	    -40.00812157	     68.72242643	     24.32350685	     -2.65317651	    -24.99999983
      2.37000000	     25.08353850	     35.75995110	      2.28644014	      0.00942089	      1.00556251	     -0.03614284	    -20.05251377	     34.40586258	    -23.79091430	     25.04318347	     45.00000000	    -10.18004540	     -8.90971762	    -90.00000000	     18.14712000	     69.22280091	     13.49480720	     43.23839226	    -24.57846994	     18.30061569	    -10.09091032	    -45.00000000	      3.86666561	      7.87541031	     19.09518842	     27.45197492	    -59.41833689	    -39.98854740	     68.77406279	     24.31077264	     -2.65758858	    -24.99999983
      2.38000000	     25.03382989	     35.84144558	      2.36319886	      0.00931655	      1.00547754	     -0.03631424	    -20.03964247	     34.39142614	    -23.73899412	     25.03221394	     45.00000000	    -10.18156314	     -8.86529999	    -90.00000000	     18.10271508	     69.27767013	     13.49619203	     43.25148841	    -24.58913514	     18.28745819	    -10.10893321	    -45.00000000	      3.89598623	      7.92880454	     19.08015121	     27.45295876	    -59.33917933	    -39.95998912	     68.85976123	     24.29109791	     -2.66527491	    -24.99999983
      2.39000000	     24.97801143	     35.93054911	      2.43816769	      0.00921606	      1.00541710	     -0.03650463	    -20.02498489	     34.37634315	    -23.68220259	     25.02091818	     45.00000000	    -10.18239556	     -8.81961249	    -90.00000000	     18.05704083	     69.34965413	     13.50029106	     43.27124347	    -24.59768377	     18.27191125	    -10.12683899	    -45.00000000	      3.92767385	      7.99089087	     19.06447925	     27.45738233	    -59.24735160	    -39.91928133	     68.97325535	     24.26424133	     -2.67524171	    -24.99999983
      2.40000000	     24.96488944	     35.95104923	      2.31761667	      0.00929829	      1.00463306	     -0.03657077	    -20.05082815	     34.35083384	    -23.69410045	     24.99406881	     45.00000000	    -10.19889446	     -8.71289334	    -90.00000000	     17.95045679	     69.70457175	     13.59285741	     43.40230539	    -24.58328246	     18.26541171	    -10.07872043	    -45.00000000	      3.89356663	      8.00558494	     19.09109294	     27.56375196	    -59.16813826	    -39.63170654	     69.52105857	     24.04588386	     -2.64518887	    -24.99999983
      2.41000000	     24.89795579	     36.04721651	      2.41613891	      0.00919242	      1.00476369	     -0.03677577	    -20.02287699	     34.33037045	    -23.59825291	     24.97992921	     45.00000000	    -10.19801011	     -8.66316598	    -90.00000000	     17.90074042	     69.77388066	     13.59621617	     43.42009556	    -24.58653851	     18.24976419	    -10.12428989	    -45.00000000	      3.94908663	      8.07385534	     19.05837119	     27.57347983	    -59.04951834	    -39.59632443	     69.59247837	     24.01981764	     -2.64257993	    -24.99999983
      2.42000000	     25.23699625	     36.00015166	      1.94732333	      0.00902637	      1.00501959	     -0.03646075	    -20.08425795	     34.19479477	    -23.50136370	     24.84996609	     45.00000000	    -10.27211301	     -8.29424993	    -90.00000000	     17.53278674	     70.14994193	     14.11369448	     43.58693984	    -24.11774424	     18.51926909	    -10.94232884	    -45.00000000	      4.35991201	      7.21783958	     18.71125825	     27.97440277	    -58.48994799	    -38.42393010	     70.16534783	     22.59652542	     -1.36072931	    -24.99999983
